<svg width="165" height="35" viewBox="0 0 165 35" fill="none" xmlns="http://www.w3.org/2000/svg">
<path fill-rule="evenodd" clip-rule="evenodd" d="M4.78801 0.985471C3.21957 1.46821 1.55466 3.18838 1.11096 4.78386C0.60716 6.59622 0.617112 28.6801 1.12283 30.4985C1.34142 31.2854 2.10286 32.4192 2.85665 33.0805L4.20076 34.2594H17.5297C30.7824 34.2594 30.8662 34.2545 32.1594 33.3846C34.5888 31.7505 34.6087 31.6205 34.6087 17.361C34.6087 4.94719 34.58 4.44074 33.8193 3.42286C33.3852 2.84182 32.5549 2.01176 31.9737 1.57799C30.9619 0.8229 30.3854 0.786179 18.4071 0.716561C11.5262 0.676779 5.39786 0.797655 4.78801 0.985471ZM31.6338 3.76254L32.6946 4.82288V17.62V30.4171L31.6334 31.4774L30.5718 32.5381H17.7245H4.87721L3.75974 31.2888L2.64265 30.0395V17.6655C2.64265 5.60398 2.66332 5.26507 3.46114 4.25178C3.91134 3.67992 4.64369 3.06139 5.08815 2.87778C5.533 2.69379 11.4488 2.57903 18.2348 2.62264L30.5726 2.70182L31.6338 3.76254ZM50.1653 7.00513C49.7805 7.7258 43.6052 23.894 43.6052 24.1813C43.6052 24.2761 44.4872 24.3022 45.5656 24.2383C47.5081 24.1239 47.5318 24.1071 48.1608 22.4014L48.7952 20.6801H52.1786H55.5616L56.1964 22.4014C56.8303 24.1216 56.8322 24.1228 58.8807 24.2402C60.4427 24.3293 60.8867 24.2383 60.7459 23.8577C56.4659 12.3087 54.5069 7.19754 54.2133 6.81388C53.6364 6.05955 50.5937 6.203 50.1653 7.00513ZM101.667 6.59087C101.527 6.73087 101.412 10.776 101.412 15.58V24.314H107.729H114.045V22.5927V20.8714H109.643H105.24V13.6035V6.33573H103.582C102.669 6.33573 101.808 6.45049 101.667 6.59087ZM146.841 6.59087C146.701 6.73087 146.586 7.4194 146.586 8.12094C146.586 9.37712 146.611 9.39586 148.308 9.39586H150.031V7.8658C150.031 6.34682 150.02 6.33573 148.564 6.33573C147.756 6.33573 146.981 6.45049 146.841 6.59087ZM78.0596 9.34843C78.0596 11.147 77.9984 11.2648 77.0068 11.3788C76.188 11.4729 75.9277 11.7273 75.8358 12.5241C75.7347 13.397 75.876 13.5664 76.7928 13.6716L77.8682 13.7948L78.0596 18.2794C78.2996 23.899 78.5626 24.314 81.8841 24.314H84.1848V22.9993C84.1848 21.7959 84.0796 21.6746 82.9407 21.5649L81.6965 21.4451V17.62V13.7948L82.9636 13.6732C84.0884 13.5653 84.2174 13.4364 84.1121 12.5256C84.0145 11.6818 83.776 11.4787 82.7692 11.3815C81.6027 11.2687 81.5399 11.1788 81.4293 9.46892L81.3136 7.67454L79.6866 7.5571L78.0596 7.43929V9.34843ZM15.9892 8.50422C15.4337 8.59717 14.0716 9.22335 12.9621 9.89543C5.10882 14.652 8.54432 26.6091 17.7643 26.6091C22.9474 26.6091 26.7328 22.8582 26.7523 17.7034C26.7661 14.0649 24.9504 11.0349 21.7752 9.39892C20.3216 8.64995 17.6173 8.23187 15.9892 8.50422ZM90.6929 11.2859C88.0005 11.8153 86.4125 13.3151 85.6844 16.0168C84.0918 21.9263 89.8308 26.5923 95.3014 23.8359C98.1236 22.414 99.5259 18.4347 98.3261 15.2541C97.727 13.6663 95.7233 11.7602 94.3677 11.489C93.715 11.3582 92.9229 11.1998 92.607 11.1371C92.2912 11.074 91.4299 11.1413 90.6929 11.2859ZM120.37 11.3601C114.762 12.6683 113.827 21.2256 119.008 23.8359C123.45 26.074 128.169 23.6859 128.83 18.8651C129.518 13.8537 125.387 10.1896 120.37 11.3601ZM134.955 11.313C130.582 12.6557 129.403 19.4893 132.977 22.7839C133.835 23.5754 134.398 23.7402 136.24 23.7402C137.823 23.7402 138.68 23.5467 139.206 23.0708C140.537 21.8678 140.752 22.2932 140.065 24.7661C139.754 25.8846 139.403 26.2633 138.363 26.6064C136.97 27.0658 135.615 26.6604 134.986 25.597C134.625 24.9865 131.816 24.892 131.454 25.4784C131.098 26.0537 132.252 27.6507 133.477 28.2773C136.388 29.7653 140.304 29.333 142.246 27.3095L143.332 26.1784L143.45 18.7434L143.569 11.3084H142.059C140.847 11.3084 140.508 11.4668 140.339 12.1121L140.129 12.9162L139.266 12.1121C138.791 11.6703 138.219 11.3061 137.995 11.3031C137.772 11.3004 137.245 11.2251 136.824 11.1363C136.402 11.0472 135.562 11.1267 134.955 11.313ZM53.3347 14.1272C53.8791 15.5724 54.3243 16.9066 54.3243 17.0917C54.3243 17.2772 53.3768 17.4287 52.2188 17.4287C51.0607 17.4287 50.1132 17.2834 50.1132 17.1062C50.1132 16.8358 51.14 13.6567 51.849 11.7319C52.12 10.9963 52.2107 11.1428 53.3347 14.1272ZM62.1175 11.8872C61.6394 13.1315 62.219 21.3946 62.8725 22.6577C64.011 24.8572 67.9346 25.3273 69.8836 23.4973L70.7859 22.6504V23.4824C70.7859 24.213 70.9949 24.314 72.5086 24.314H74.2313V17.7894V11.2645L72.6043 11.3823L70.9773 11.4997L70.7859 15.8986C70.6806 18.3181 70.4486 20.5233 70.2702 20.7994C69.6803 21.7117 68.1207 22.0675 67.0181 21.5408C66.014 21.0607 65.9979 20.9919 65.8091 16.277L65.6177 11.4997L63.9873 11.3819C62.7592 11.2931 62.2975 11.4178 62.1175 11.8872ZM146.841 11.5636C146.701 11.7036 146.586 14.6298 146.586 18.0664V24.314H148.308H150.031V17.8112V11.3084H148.564C147.756 11.3084 146.981 11.4232 146.841 11.5636ZM152.328 11.5169C152.328 11.6317 153.189 13.0011 154.242 14.5598C155.295 16.1186 156.156 17.5048 156.156 17.6402C156.156 17.7753 155.209 19.2296 154.051 20.8714C152.893 22.5131 151.945 23.9598 151.945 24.0853C151.945 24.2111 152.789 24.314 153.82 24.314C155.65 24.314 155.723 24.2689 156.921 22.403C157.596 21.3518 158.288 20.578 158.458 20.6832C158.628 20.7884 159.257 21.6479 159.855 22.5935C160.92 24.2777 160.983 24.3125 162.971 24.3132C164.526 24.314 164.928 24.1996 164.693 23.8225C164.525 23.5524 163.473 21.996 162.355 20.3641L160.323 17.397L162.071 14.9489C164.601 11.4068 164.613 11.3084 162.532 11.3084C160.889 11.3084 160.717 11.411 159.573 13.0707L158.36 14.833L157.213 13.0707C156.108 11.3731 155.997 11.3084 154.197 11.3084C153.169 11.3084 152.328 11.4022 152.328 11.5169ZM94.0407 14.4608C94.8075 15.0736 95.4071 17.6238 95.1306 19.0965C94.8397 20.6476 93.3532 22.0189 91.9639 22.0189C88.6666 22.0189 87.8738 15.181 91.0378 14.0327C92.0818 13.654 93.2376 13.8185 94.0407 14.4608ZM123.423 14.1521C124.948 14.7886 125.383 15.9874 125.208 19.0716C125.132 20.4085 123.568 22.0189 122.345 22.0189C118.288 22.0189 117.981 14.5304 122.001 13.6276C122.061 13.6146 122.701 13.8503 123.423 14.1521ZM139.408 14.8268C140.54 16.1354 140.44 19.0873 139.218 20.3932C137.195 22.556 134.335 20.612 134.335 17.0741C134.335 14.2117 137.617 12.7574 139.408 14.8268Z" fill="white"/>
</svg>
