<svg width="165" height="34" viewBox="0 0 165 34" fill="none" xmlns="http://www.w3.org/2000/svg">
<path id="image 8 (Traced)" fill-rule="evenodd" clip-rule="evenodd" d="M4.25872 0.641233C2.69027 1.12397 1.02536 2.84414 0.581663 4.43962C0.0778628 6.25198 0.0878156 28.3358 0.59353 30.1543C0.812125 30.9411 1.57357 32.0749 2.32735 32.7363L3.67146 33.9152H17.0004C30.2531 33.9152 30.3369 33.9102 31.6301 33.0404C34.0595 31.4063 34.0794 31.2762 34.0794 17.0168C34.0794 4.60296 34.0507 4.0965 33.29 3.07863C32.8559 2.49758 32.0256 1.66752 31.4444 1.23375C30.4326 0.478662 29.8561 0.44194 17.8778 0.372322C10.9969 0.332541 4.86856 0.453417 4.25872 0.641233ZM31.1045 3.4183L32.1653 4.47864V17.2757V30.0728L31.1041 31.1332L30.0425 32.1939H17.1952H4.34792L3.23044 30.9446L2.11335 29.6953V17.3213C2.11335 5.25974 2.13403 4.92083 2.93184 3.90754C3.38204 3.33568 4.11439 2.71715 4.55886 2.53354C5.0037 2.34955 10.9195 2.2348 17.7055 2.2784L30.0433 2.35758L31.1045 3.4183ZM49.636 6.6609C49.2513 7.38156 43.0759 23.5498 43.0759 23.837C43.0759 23.9319 43.9579 23.9579 45.0363 23.894C46.9788 23.7797 47.0025 23.7628 47.6315 22.0572L48.2659 20.3359H51.6493H55.0323L55.6671 22.0572C56.301 23.7774 56.3029 23.7785 58.3514 23.8959C59.9134 23.9851 60.3574 23.894 60.2166 23.5134C55.9366 11.9645 53.9776 6.8533 53.684 6.46964C53.1071 5.71531 50.0644 5.85876 49.636 6.6609ZM101.138 6.24663C100.998 6.38663 100.883 10.4317 100.883 15.2358V23.9698H107.199H113.516V22.2484V20.5271H109.114H104.711V13.2593V5.99149H103.052C102.14 5.99149 101.278 6.10625 101.138 6.24663ZM146.312 6.24663C146.171 6.38663 146.056 7.07516 146.056 7.7767C146.056 9.03288 146.082 9.05163 147.779 9.05163H149.502V7.52156C149.502 6.00258 149.491 5.99149 148.034 5.99149C147.227 5.99149 146.452 6.10625 146.312 6.24663ZM77.5303 9.0042C77.5303 10.8028 77.4691 10.9206 76.4775 11.0346C75.6587 11.1287 75.3984 11.3831 75.3065 12.1798C75.2054 13.0527 75.3467 13.2222 76.2635 13.3274L77.3389 13.4506L77.5303 17.9352C77.7704 23.5547 78.0333 23.9698 81.3548 23.9698H83.6556V22.6551C83.6556 21.4517 83.5503 21.3304 82.4114 21.2206L81.1672 21.1009V17.2757V13.4506L82.4343 13.3289C83.5591 13.2211 83.6881 13.0922 83.5828 12.1814C83.4852 11.3375 83.2467 11.1344 82.2399 11.0373C81.0734 10.9244 81.0106 10.8345 80.9 9.12468L80.7844 7.3303L79.1573 7.21286L77.5303 7.09505V9.0042ZM15.4599 8.15998C14.9044 8.25293 13.5423 8.87911 12.4328 9.55119C4.57953 14.3078 8.01502 26.2649 17.235 26.2649C22.4181 26.2649 26.2035 22.5139 26.223 17.3591C26.2368 13.7206 24.4211 10.6907 21.2459 9.05468C19.7923 8.30572 17.088 7.88763 15.4599 8.15998ZM90.1636 10.9416C87.4712 11.471 85.8832 12.9709 85.1551 15.6726C83.5625 21.5821 89.3015 26.248 94.7721 23.4916C97.5943 22.0698 98.9966 18.0905 97.7968 14.9099C97.1977 13.322 95.194 11.416 93.8384 11.1448C93.1857 11.0139 92.3936 10.8556 92.0778 10.7928C91.7619 10.7297 90.9006 10.797 90.1636 10.9416ZM119.841 11.0158C114.232 12.3241 113.298 20.8813 118.478 23.4916C122.92 25.7297 127.64 23.3417 128.301 18.5208C128.988 13.5095 124.858 9.84534 119.841 11.0158ZM134.426 10.9688C130.052 12.3114 128.874 19.1451 132.448 22.4397C133.306 23.2311 133.868 23.396 135.711 23.396C137.293 23.396 138.151 23.2024 138.677 22.7266C140.007 21.5236 140.223 21.9489 139.535 24.4219C139.224 25.5404 138.874 25.9191 137.834 26.2622C136.441 26.7216 135.085 26.3161 134.457 25.2527C134.096 24.6422 131.287 24.5478 130.924 25.1342C130.568 25.7095 131.723 27.3065 132.948 27.933C135.858 29.421 139.775 28.9888 141.717 26.9653L142.802 25.8342L142.921 18.3992L143.039 10.9642H141.53C140.318 10.9642 139.979 11.1226 139.81 11.7679L139.6 12.5719L138.736 11.7679C138.261 11.3261 137.69 10.9619 137.466 10.9588C137.243 10.9562 136.715 10.8808 136.294 10.7921C135.873 10.7029 135.033 10.7825 134.426 10.9688ZM52.8054 13.783C53.3498 15.2281 53.795 16.5623 53.795 16.7475C53.795 16.933 52.8475 17.0845 51.6895 17.0845C50.5314 17.0845 49.5839 16.9391 49.5839 16.762C49.5839 16.4916 50.6107 13.3125 51.3197 11.3877C51.5907 10.6521 51.6814 10.7986 52.8054 13.783ZM61.5882 11.543C61.1101 12.7873 61.6897 21.0504 62.3432 22.3135C63.4817 24.5129 67.4053 24.9831 69.3543 23.1531L70.2566 22.3062V23.1382C70.2566 23.8688 70.4656 23.9698 71.9793 23.9698H73.702V17.4452V10.9202L72.075 11.038L70.448 11.1555L70.2566 15.5544C70.1513 17.9738 69.9193 20.179 69.7409 20.4552C69.151 21.3675 67.5914 21.7233 66.4888 21.1965C65.4847 20.7165 65.4686 20.6476 65.2799 15.9327L65.0884 11.1555L63.458 11.0377C62.2299 10.9489 61.7682 11.0736 61.5882 11.543ZM146.312 11.2193C146.171 11.3594 146.056 14.2856 146.056 17.7221V23.9698H147.779H149.502V17.467V10.9642H148.034C147.227 10.9642 146.452 11.079 146.312 11.2193ZM151.799 11.1727C151.799 11.2874 152.66 12.6568 153.713 14.2156C154.766 15.7744 155.627 17.1606 155.627 17.296C155.627 17.431 154.68 18.8854 153.522 20.5271C152.363 22.1689 151.416 23.6156 151.416 23.741C151.416 23.8669 152.259 23.9698 153.29 23.9698C155.12 23.9698 155.193 23.9246 156.392 22.0587C157.067 21.0076 157.758 20.2337 157.929 20.3389C158.099 20.4441 158.728 21.3036 159.326 22.2492C160.39 23.9334 160.454 23.9682 162.441 23.969C163.997 23.9698 164.399 23.8554 164.164 23.4782C163.996 23.2082 162.943 21.6517 161.826 20.0199L159.793 17.0527L161.542 14.6046C164.071 11.0625 164.084 10.9642 162.003 10.9642C160.36 10.9642 160.187 11.0667 159.044 12.7265L157.831 14.4887L156.684 12.7265C155.579 11.0289 155.468 10.9642 153.668 10.9642C152.64 10.9642 151.799 11.0579 151.799 11.1727ZM93.5114 14.1165C94.2782 14.7293 94.8778 17.2796 94.6014 18.7522C94.3104 20.3034 92.8239 21.6747 91.4346 21.6747C88.1373 21.6747 87.3445 14.8368 90.5085 13.6885C91.5525 13.3098 92.7083 13.4743 93.5114 14.1165ZM122.894 13.8078C124.419 14.4443 124.854 15.6431 124.679 18.7274C124.603 20.0643 123.039 21.6747 121.816 21.6747C117.759 21.6747 117.452 14.1861 121.472 13.2834C121.531 13.2704 122.171 13.506 122.894 13.8078ZM138.878 14.4826C140.011 15.7912 139.91 18.7431 138.688 20.049C136.666 22.2117 133.806 20.2678 133.806 16.7299C133.806 13.8675 137.088 12.4132 138.878 14.4826Z" fill="#FFDB7D"/>
</svg>
