<svg width="49" height="62" viewBox="0 0 49 62" fill="none" xmlns="http://www.w3.org/2000/svg">
<path id="Exclude" fill-rule="evenodd" clip-rule="evenodd" d="M48.851 27.1464C48.5735 26.9818 47.7176 25.7056 47.3244 25.088C47.6019 23.8759 47.3521 21.2595 44.1322 20.491C40.9122 19.7225 36.036 24.3791 34.0004 26.8034L32.6819 28.3128C30.9008 26.6204 25.7701 22.6866 19.4968 20.491C14.0333 18.5788 8.80555 9.47237 5.85556 4.33365C4.57149 2.09686 3.71898 0.611822 3.46643 0.799098C2.63369 1.41661 2.63369 7.93481 3.46643 8.964C3.80095 9.37744 3.3516 9.25942 2.70766 9.0903C1.74859 8.83841 0.357872 8.47315 0.482429 9.58152C0.690616 11.4341 1.73151 15.0019 3.46643 17.2661C4.27527 18.3217 3.62104 17.901 2.81167 17.3804C1.88497 16.7844 0.754883 16.0575 1.38461 17.2661C1.46611 17.4226 1.55356 17.5911 1.64618 17.7696C2.89427 20.1746 5.07946 24.3855 6.24229 25.088C6.79107 25.4196 6.38886 25.4996 5.81831 25.613C5.09017 25.7578 4.08784 25.9571 4.43801 26.8034C5.06257 28.3128 7.00564 32.361 9.01811 32.7726C10.0693 32.9877 9.66258 33.4461 9.2221 33.9425C8.81931 34.3965 8.38832 34.8822 9.01811 35.2427C9.22373 35.3604 9.45129 35.4981 9.69474 35.6455C11.0124 36.4429 12.7954 37.522 14.084 37.2325C14.6753 37.0996 14.4129 37.2961 13.9662 37.6307C13.2596 38.1599 12.0921 39.0343 13.1124 39.4967C13.1389 39.5087 13.1661 39.521 13.1941 39.5338C14.9288 40.3219 19.6302 42.4579 27.8937 38.8792C28.2465 38.7264 28.5355 38.6214 28.7656 38.5606C28.8874 39.2061 24.9395 42.8736 21.8226 45.769C19.6698 47.7689 17.9134 49.4005 18.1682 49.4138C18.3405 49.4228 18.5983 49.4578 18.8972 49.4983C19.0192 49.5149 19.148 49.5324 19.2806 49.5494C18.3788 50.3919 17.481 51.2259 16.6176 52.0279C12.6313 55.7311 9.37898 58.7523 9.85086 58.7769C10.1699 58.7935 10.6474 58.8583 11.2007 58.9334C12.9343 59.1687 15.4126 59.505 16.0964 58.7769C16.4453 58.4055 16.2753 58.8342 16.0319 59.4482C15.6459 60.4222 15.0749 61.8626 16.0964 61.3155C16.9543 60.8561 17.6649 60.1964 18.2376 59.6647C18.7768 59.1641 19.1939 58.7769 19.4968 58.7769C19.725 58.7769 19.8421 59.2809 19.9766 59.8603C20.2102 60.8662 20.4965 62.0992 21.5093 61.3155C23.1054 60.0805 25.326 57.6105 25.6036 56.7871C25.7072 56.4798 25.7625 56.7269 25.8452 57.0967C25.9841 57.7177 26.2003 58.6846 26.8527 57.9535C27.8937 56.7871 30.6001 51.9156 31.641 48.0733C32.1667 46.1328 32.6887 46.0935 33.892 46.0029C35.0713 45.9141 36.9049 45.776 40.0379 43.7507C43.0945 41.7747 43.0088 38.5296 42.9173 35.0658C42.8468 32.3957 42.7728 29.5955 44.1322 27.1464C44.5794 26.3407 46.5179 26.7161 47.8725 26.9785C48.2643 27.0544 48.6072 27.1208 48.851 27.1464ZM19.2806 49.5494C20.1657 49.663 21.2199 49.7558 21.5411 49.4138C21.7295 49.2132 21.6377 49.4447 21.5063 49.7763C21.2978 50.3024 20.9894 51.0803 21.5411 50.7848C22.0044 50.5367 22.3881 50.1804 22.6974 49.8932C22.9886 49.6229 23.2139 49.4138 23.3775 49.4138C23.5007 49.4138 23.5639 49.686 23.6366 49.9989C23.7627 50.5421 23.9174 51.208 24.4643 50.7848C25.3263 50.1178 26.5255 48.7839 26.6754 48.3392C26.7314 48.1733 26.7612 48.3067 26.8059 48.5064C26.8809 48.8418 26.9977 49.3639 27.35 48.9691C27.9122 48.3392 29.3738 45.7084 29.9359 43.6333C30.2198 42.5854 30.5017 42.5642 31.1515 42.5152C31.7884 42.4673 32.7787 42.3927 34.4706 41.2989C36.1213 40.2318 36.0751 38.4793 36.0256 36.6087C35.9876 35.1667 35.9476 33.6545 36.6817 32.3319C36.9233 31.8967 37.9701 32.0995 38.7017 32.2412C38.9133 32.2821 39.0984 32.318 39.2302 32.3319C39.0802 32.2429 38.618 31.5537 38.4057 31.2202C38.5556 30.5656 38.4207 29.1526 36.6817 28.7376C34.9428 28.3226 32.3094 30.8373 31.2101 32.1466L30.4981 32.9618C29.5361 32.0478 26.7654 29.9233 23.3775 28.7376C20.4269 27.7049 17.6037 22.787 16.0106 20.0119C15.3171 18.8039 14.8567 18.0019 14.7203 18.103C14.2706 18.4365 14.2706 21.9567 14.7203 22.5125C14.901 22.7358 14.6583 22.672 14.3105 22.5807C13.7926 22.4447 13.0415 22.2474 13.1088 22.846C13.2212 23.8464 13.7834 25.7732 14.7203 26.996C15.1571 27.5661 14.8038 27.3389 14.3667 27.0577C13.8662 26.7358 13.2559 26.3433 13.596 26.996C13.64 27.0805 13.6873 27.1715 13.7373 27.2679C14.4113 28.5667 15.5914 30.8408 16.2194 31.2202C16.5158 31.3993 16.2986 31.4425 15.9904 31.5037C15.5972 31.5819 15.0559 31.6895 15.245 32.1466C15.5823 32.9618 16.6316 35.1479 17.7185 35.3703C18.2862 35.4864 18.0665 35.734 17.8286 36.0021C17.6111 36.2472 17.3784 36.5095 17.7185 36.7042C17.8295 36.7678 17.9524 36.8422 18.0839 36.9217C18.7955 37.3524 19.7584 37.9352 20.4543 37.7788C20.7737 37.707 20.6319 37.8132 20.3907 37.9939C20.0091 38.2796 19.3786 38.7519 19.9296 39.0016C19.9439 39.0081 19.9586 39.0147 19.9737 39.0216C20.9105 39.4472 23.4495 40.6008 27.9122 38.6681C28.4743 38.4246 28.7364 38.4061 28.7656 38.5606C31.6258 37.8039 25.361 43.8692 19.2806 49.5494Z" fill="white"/>
</svg>
