<svg width="50" height="62" viewBox="0 0 50 62" fill="none" xmlns="http://www.w3.org/2000/svg">
<path fill-rule="evenodd" clip-rule="evenodd" d="M49.3218 26.8032C49.0442 26.6385 48.1883 25.3623 47.7951 24.7448C48.0726 23.5326 47.8228 20.9162 44.6029 20.1477C41.3829 19.3793 36.5067 24.0358 34.4711 26.4601L33.1526 27.9696C31.3715 26.2771 26.2408 22.3434 19.9675 20.1477C14.504 18.2355 9.27625 9.12911 6.32627 3.99039C5.0422 1.75359 4.18969 0.268561 3.93714 0.455836C3.10439 1.07335 3.10439 7.59155 3.93714 8.62074C4.27165 9.03417 3.8223 8.91616 3.17836 8.74703C2.21929 8.49514 0.828575 8.12989 0.953132 9.23826C1.16132 11.0908 2.20221 14.6587 3.93714 16.9229C4.74597 17.9785 4.09174 17.5577 3.28238 17.0371C2.35567 16.4411 1.22559 15.7143 1.85531 16.9229C1.93681 17.0793 2.02426 17.2478 2.11688 17.4263C3.36497 19.8314 5.55017 24.0422 6.71299 24.7448C7.26177 25.0763 6.85957 25.1563 6.28901 25.2698C5.56087 25.4145 4.55854 25.6138 4.90871 26.4601C5.53327 27.9696 7.47635 32.0177 9.48881 32.4294C10.54 32.6444 10.1333 33.1028 9.6928 33.5993C9.29001 34.0532 8.85903 34.5389 9.48881 34.8994C9.69443 35.0171 9.92199 35.1549 10.1654 35.3022C11.4831 36.0997 13.2661 37.1788 14.5547 36.8892C15.1461 36.7563 14.8836 36.9529 14.4369 37.2874C13.7303 37.8166 12.5628 38.691 13.5831 39.1534C13.6096 39.1654 13.6368 39.1778 13.6648 39.1905C15.3995 39.9786 20.1009 42.1146 28.3644 38.5359C28.7172 38.3831 29.0063 38.2781 29.2363 38.2173C29.3581 38.8628 25.4102 42.5303 22.2933 45.4258C20.1405 47.4257 18.3841 49.0573 18.6389 49.0705C18.8112 49.0795 19.069 49.1145 19.3679 49.155C19.4899 49.1716 19.6187 49.1891 19.7513 49.2061C18.8495 50.0486 17.9517 50.8826 17.0883 51.6846C13.102 55.3878 9.84968 58.4091 10.3216 58.4336C10.6406 58.4502 11.1181 58.515 11.6714 58.5901C13.405 58.8254 15.8833 59.1618 16.5671 58.4336C16.916 58.0622 16.746 58.4909 16.5027 59.1049C16.1166 60.079 15.5456 61.5194 16.5671 60.9723C17.425 60.5129 18.1356 59.8532 18.7083 59.3214C19.2475 58.8208 19.6646 58.4336 19.9675 58.4336C20.1958 58.4336 20.3128 58.9376 20.4473 59.517C20.6809 60.5229 20.9672 61.756 21.98 60.9723C23.5761 59.7373 25.7967 57.2672 26.0743 56.4438C26.1779 56.1365 26.2332 56.3836 26.3159 56.7534C26.4548 57.3744 26.671 58.3413 27.3234 57.6103C28.3644 56.4438 31.0708 51.5723 32.1117 47.73C32.6374 45.7895 33.1594 45.7502 34.3627 45.6596C35.542 45.5708 37.3757 45.4328 40.5086 43.4074C43.5652 41.4314 43.4795 38.1864 43.388 34.7225C43.3175 32.0524 43.2435 29.2523 44.6029 26.8032C45.0501 25.9974 46.9886 26.3729 48.3432 26.6352C48.735 26.7111 49.0779 26.7775 49.3218 26.8032ZM19.7513 49.2061C20.6364 49.3197 21.6906 49.4125 22.0118 49.0705C22.2002 48.8699 22.1084 49.1015 21.977 49.4331C21.7685 49.9591 21.4601 50.737 22.0118 50.4415C22.4751 50.1934 22.8588 49.8372 23.1681 49.55C23.4593 49.2796 23.6846 49.0705 23.8482 49.0705C23.9714 49.0705 24.0346 49.3427 24.1073 49.6556C24.2334 50.1989 24.3881 50.8648 24.935 50.4415C25.797 49.7746 26.9962 48.4406 27.1461 47.996C27.2021 47.83 27.2319 47.9634 27.2766 48.1632C27.3516 48.4985 27.4684 49.0207 27.8207 48.6259C28.3829 47.996 29.8445 45.3651 30.4066 43.2901C30.6905 42.2421 30.9724 42.2209 31.6222 42.172C32.2591 42.124 33.2494 42.0495 34.9413 40.9557C36.592 39.8885 36.5458 38.1361 36.4963 36.2654C36.4583 34.8234 36.4183 33.3112 37.1524 31.9886C37.394 31.5534 38.4409 31.7562 39.1724 31.8979C39.384 31.9389 39.5691 31.9747 39.7009 31.9886C39.5509 31.8997 39.0887 31.2105 38.8764 30.877C39.0263 30.2223 38.8914 28.8093 37.1524 28.3943C35.4135 27.9793 32.7801 30.4941 31.6808 31.8033L30.9688 32.6185C30.0068 31.7045 27.2361 29.5801 23.8482 28.3943C20.8976 27.3617 18.0744 22.4438 16.4813 19.6686C15.7878 18.4606 15.3274 17.6586 15.191 17.7598C14.7413 18.0933 14.7413 21.6134 15.191 22.1692C15.3717 22.3925 15.129 22.3288 14.7812 22.2374C14.2633 22.1014 13.5122 21.9041 13.5795 22.5027C13.6919 23.5032 14.2541 25.43 15.191 26.6528C15.6278 27.2228 15.2745 26.9956 14.8374 26.7145C14.3369 26.3926 13.7266 26.0001 14.0667 26.6528C14.1107 26.7372 14.158 26.8282 14.208 26.9246C14.882 28.2235 16.0621 30.4975 16.6901 30.877C16.9865 31.056 16.7693 31.0992 16.4611 31.1605C16.0679 31.2387 15.5266 31.3463 15.7157 31.8033C16.053 32.6185 17.1023 34.8047 18.1892 35.027C18.7569 35.1431 18.5372 35.3907 18.2993 35.6588C18.0818 35.9039 17.8491 36.1663 18.1892 36.361C18.3002 36.4245 18.4231 36.4989 18.5546 36.5785C19.2662 37.0091 20.2291 37.5919 20.925 37.4355C21.2444 37.3638 21.1026 37.4699 20.8614 37.6506C20.4798 37.9364 19.8493 38.4086 20.4003 38.6583C20.4146 38.6648 20.4293 38.6715 20.4444 38.6783C21.3812 39.104 23.9202 40.2575 28.3829 38.3248C28.945 38.0814 29.2071 38.0628 29.2363 38.2173C32.0965 37.4607 25.8317 43.5259 19.7513 49.2061Z" fill="#F5DA7E"/>
</svg>
