<svg width="101" height="39" viewBox="0 0 101 39" fill="none" xmlns="http://www.w3.org/2000/svg">
<g id="Logo 1" clip-path="url(#clip0_589_2270)">
<path id="Pikni" fill-rule="evenodd" clip-rule="evenodd" d="M18.1183 2.93722C16.2882 1.41726 13.9983 0.560384 11.6199 0.505654H3.49429C1.86711 0.505654 0.884505 0.847466 0.526319 1.52904C0.348673 1.84106 0.227572 2.18195 0.168283 2.53606C0.119584 2.97332 0.0990143 3.41326 0.10682 3.85316V24.935C0.0794758 25.6017 0.158919 26.2685 0.342179 26.9101C0.638962 27.8475 1.68286 28.3162 3.45332 28.3162C5.07027 28.3162 6.06285 27.9744 6.4108 27.2928C6.59117 26.9811 6.71595 26.6403 6.77933 26.2858C6.81003 25.9952 6.83055 25.5582 6.83055 24.9749V20.6787H11.579C13.9709 20.6302 16.2758 19.7731 18.1183 18.2471C19.2016 17.4009 20.0739 16.315 20.6665 15.0746C21.3355 13.6828 21.6721 12.1546 21.6492 10.6106C21.6705 9.0608 21.3341 7.52697 20.6665 6.12815C20.0772 4.88055 19.2047 3.78787 18.1183 2.93722ZM11.6199 13.954H6.83055V7.23034H11.579C12.4146 7.24806 13.2193 7.5494 13.8611 8.08486C14.2341 8.38679 14.5292 8.77388 14.7216 9.21358C14.9139 9.65327 14.9979 10.1327 14.9664 10.6116C14.9993 11.0878 14.9159 11.5649 14.7233 12.0017C14.5308 12.4385 14.2348 12.8219 13.8611 13.1189C13.2275 13.6387 12.4391 13.9318 11.6199 13.954ZM51.5116 12.9306C54.6022 9.96688 56.8809 7.63662 58.3478 5.93985C58.9845 5.32958 59.3898 4.51713 59.4941 3.64131C59.4063 3.17837 59.2259 2.73789 58.9639 2.34627C58.7019 1.95465 58.3637 1.61996 57.9692 1.36223C57.3044 0.656104 56.421 0.194322 55.4617 0.0512695C54.9905 0.139931 54.5424 0.323799 54.1448 0.591618C53.7471 0.859438 53.4082 1.20558 53.1489 1.60887C51.0202 4.09161 48.2333 7.27025 44.7879 11.1448V3.88898C44.811 3.22509 44.7492 2.56098 44.6037 1.91281C44.266 0.976413 43.2221 0.5077 41.4414 0.5077C39.8244 0.5077 38.8318 0.849511 38.4839 1.53109C38.3018 1.84104 38.1801 2.18277 38.1256 2.5381C38.0772 2.97333 38.0566 3.41121 38.0641 3.84906V24.9718C38.032 25.6255 38.1083 26.2801 38.2895 26.9091C38.5965 27.8721 39.6299 28.3531 41.4106 28.3531C43.0276 28.3531 44.0204 28.0113 44.3684 27.3297C44.5463 27.0238 44.6707 26.6898 44.7366 26.3421C44.7761 25.8998 44.7933 25.4558 44.7879 25.0117V17.6014L53.1489 27.1373C54.0597 28.2009 54.8375 28.7327 55.4822 28.7327C56.4337 28.5841 57.3089 28.1228 57.9692 27.4218C58.3636 27.164 58.7019 26.8293 58.9639 26.4377C59.2259 26.0461 59.4063 25.6056 59.4941 25.1427C59.3633 24.229 58.9182 23.3895 58.2353 22.7684C56.6184 20.895 53.8722 18.0977 49.997 14.3767L51.5116 12.9306ZM81.4457 3.77538V16.6138C79.6445 14.2839 76.0729 9.48452 70.7308 2.21574C70.4609 1.86637 70.1667 1.53637 69.8506 1.22817C69.5815 0.999394 69.2626 0.836774 68.9194 0.753315C68.3323 0.59731 67.7254 0.528348 67.1183 0.548636C66.4895 0.531699 65.8617 0.608616 65.2556 0.776851C65.0249 0.84676 64.8104 0.961592 64.6242 1.11474C64.4381 1.26789 64.2838 1.45634 64.1708 1.66925C63.8912 2.33519 63.7688 3.05653 63.8127 3.77742V24.9718C63.8056 25.4161 63.8262 25.8604 63.8742 26.3022C63.9265 26.6632 64.048 27.0107 64.2322 27.3256C64.5904 28.0078 65.5525 28.349 67.1183 28.349C68.7352 28.349 69.7278 28.0072 70.086 27.3256C70.2568 27.0174 70.3778 26.6841 70.4443 26.338C70.489 25.896 70.5062 25.4517 70.4955 25.0076V12.511C72.2966 14.8416 76.0456 19.8057 81.7425 27.4034C81.9888 27.7254 82.3176 27.9747 82.6942 28.1249C83.3625 28.3143 84.0576 28.3914 84.7512 28.3531C86.3682 28.3531 87.3505 28.0113 87.7087 27.3297C87.8885 27.0256 88.0101 26.6907 88.067 26.3421C88.1164 25.9005 88.137 25.456 88.1284 25.0117V3.92479C88.1553 3.27123 88.0794 2.61749 87.9033 1.98752C87.8277 1.67878 87.66 1.40037 87.4224 1.18928C87.1281 0.974008 86.794 0.818905 86.4397 0.732846C85.8674 0.592009 85.2789 0.527996 84.6898 0.542495C84.0813 0.527162 83.474 0.604107 82.8886 0.77071C82.6572 0.839156 82.4421 0.953428 82.2557 1.10673C82.0693 1.26004 81.9155 1.44924 81.8037 1.66311C81.5194 2.32764 81.3968 3.05012 81.4457 3.77128V3.77538Z" fill="white"/>
<path id="Rounded Rectangle 1019" d="M28.9686 9.99365H27.9452C26.2496 9.99365 24.875 11.3682 24.875 13.0638V35.5784C24.875 37.274 26.2496 38.6485 27.9452 38.6485H28.9686C30.6642 38.6485 32.0387 37.274 32.0387 35.5784V13.0638C32.0387 11.3682 30.6642 9.99365 28.9686 9.99365Z" fill="white"/>
<path id="Rounded Rectangle 1019 copy" d="M97.535 9.99365H96.5116C94.816 9.99365 93.4414 11.3682 93.4414 13.0638V35.5784C93.4414 37.274 94.816 38.6485 96.5116 38.6485H97.535C99.2306 38.6485 100.605 37.274 100.605 35.5784V13.0638C100.605 11.3682 99.2306 9.99365 97.535 9.99365Z" fill="white"/>
<path id="Vector" d="M28.5487 7.53139C30.5269 7.53139 32.1305 5.92774 32.1305 3.94953C32.1305 1.97133 30.5269 0.367676 28.5487 0.367676C26.5704 0.367676 24.9668 1.97133 24.9668 3.94953C24.9668 5.92774 26.5704 7.53139 28.5487 7.53139Z" fill="#FB697A"/>
<path id="Ellipse 617 copy" d="M97.2339 7.6744C99.2206 7.6744 100.831 6.06387 100.831 4.07719C100.831 2.09051 99.2206 0.47998 97.2339 0.47998C95.2472 0.47998 93.6367 2.09051 93.6367 4.07719C93.6367 6.06387 95.2472 7.6744 97.2339 7.6744Z" fill="#FAD040"/>
</g>
<defs>
<clipPath id="clip0_589_2270">
<rect width="100.712" height="38.6012" fill="white" transform="translate(0.119141 0.0483398)"/>
</clipPath>
</defs>
</svg>
