<svg width="102" height="39" viewBox="0 0 102 39" fill="none" xmlns="http://www.w3.org/2000/svg">
<g id="Logo 1" clip-path="url(#clip0_785_392)">
<path id="Pikni" fill-rule="evenodd" clip-rule="evenodd" d="M18.6476 3.28049C16.8175 1.76052 14.5276 0.903646 12.1492 0.848916H4.02359C2.3964 0.848916 1.4138 1.19073 1.05562 1.8723C0.87797 2.18432 0.756869 2.52521 0.69758 2.87932C0.648881 3.31658 0.628311 3.75652 0.636117 4.19642V25.2782C0.608773 25.9449 0.688216 26.6117 0.871476 27.2534C1.16826 28.1908 2.21215 28.6595 3.98262 28.6595C5.59957 28.6595 6.59215 28.3177 6.9401 27.6361C7.12047 27.3244 7.24525 26.9836 7.30863 26.6291C7.33933 26.3384 7.35985 25.9015 7.35985 25.3181V21.0219H12.1083C14.5002 20.9734 16.8051 20.1164 18.6476 18.5904C19.7309 17.7442 20.6032 16.6582 21.1958 15.4179C21.8648 14.0261 22.2014 12.4979 22.1785 10.9539C22.1997 9.40407 21.8634 7.87023 21.1958 6.47141C20.6065 5.22381 19.734 4.13113 18.6476 3.28049ZM12.1492 14.2973H7.35985V7.5736H12.1083C12.9439 7.59132 13.7486 7.89266 14.3904 8.42813C14.7634 8.73005 15.0585 9.11714 15.2509 9.55684C15.4432 9.99654 15.5272 10.476 15.4957 10.9549C15.5286 11.4311 15.4452 11.9082 15.2526 12.345C15.0601 12.7818 14.7641 13.1652 14.3904 13.4622C13.7568 13.9819 12.9684 14.2751 12.1492 14.2973ZM52.0409 13.2739C55.1315 10.3101 57.4102 7.97989 58.877 6.28311C59.5138 5.67284 59.9191 4.86039 60.0234 3.98458C59.9356 3.52163 59.7552 3.08115 59.4932 2.68953C59.2312 2.29792 58.893 1.96322 58.4985 1.70549C57.8337 0.999366 56.9503 0.537583 55.991 0.394531C55.5198 0.483193 55.0717 0.66706 54.6741 0.93488C54.2764 1.2027 53.9375 1.54884 53.6782 1.95213C51.5495 4.43487 48.7626 7.61351 45.3172 11.4881V4.23224C45.3403 3.56835 45.2785 2.90424 45.133 2.25607C44.7953 1.31967 43.7514 0.850961 41.9707 0.850961C40.3537 0.850961 39.3611 1.19277 39.0132 1.87435C38.8311 2.1843 38.7094 2.52604 38.6549 2.88136C38.6065 3.31659 38.5859 3.75447 38.5934 4.19232V25.3151C38.5613 25.9688 38.6376 26.6234 38.8188 27.2523C39.1258 28.2153 40.1592 28.6963 41.9399 28.6963C43.5569 28.6963 44.5497 28.3545 44.8977 27.6729C45.0756 27.367 45.2 27.0331 45.2659 26.6854C45.3054 26.243 45.3225 25.799 45.3172 25.355V17.9446L53.6782 27.4805C54.589 28.5442 55.3668 29.076 56.0115 29.076C56.963 28.9273 57.8382 28.4661 58.4985 27.765C58.8929 27.5073 59.2312 27.1726 59.4932 26.781C59.7552 26.3893 59.9356 25.9489 60.0234 25.486C59.8926 24.5723 59.4475 23.7327 58.7646 23.1117C57.1477 21.2382 54.4015 18.441 50.5263 14.7199L52.0409 13.2739ZM81.975 4.11864V16.957C80.1738 14.6271 76.6022 9.82778 71.2601 2.559C70.9902 2.20963 70.696 1.87963 70.3799 1.57143C70.1108 1.34266 69.7919 1.18004 69.4487 1.09658C68.8616 0.940572 68.2547 0.87161 67.6476 0.891898C67.0188 0.874961 66.391 0.951878 65.7849 1.12011C65.5542 1.19002 65.3397 1.30485 65.1535 1.458C64.9674 1.61116 64.8131 1.7996 64.7001 2.01251C64.4205 2.67846 64.2981 3.39979 64.342 4.12069V25.3151C64.3349 25.7594 64.3555 26.2037 64.4035 26.6455C64.4558 27.0065 64.5773 27.354 64.7615 27.6688C65.1197 28.3511 66.0818 28.6922 67.6476 28.6922C69.2645 28.6922 70.2571 28.3504 70.6153 27.6688C70.7861 27.3607 70.9071 27.0273 70.9736 26.6813C71.0183 26.2393 71.0355 25.795 71.0248 25.3509V12.8543C72.8259 15.1849 76.5749 20.149 82.2718 27.7466C82.5181 28.0686 82.8469 28.318 83.2235 28.4681C83.8918 28.6575 84.5869 28.7346 85.2805 28.6963C86.8975 28.6963 87.8798 28.3545 88.238 27.6729C88.4178 27.3689 88.5394 27.034 88.5963 26.6854C88.6457 26.2437 88.6663 25.7993 88.6577 25.355V4.26806C88.6846 3.61449 88.6087 2.96075 88.4326 2.33078C88.357 2.02205 88.1893 1.74363 87.9517 1.53254C87.6574 1.31727 87.3233 1.16217 86.969 1.07611C86.3967 0.935271 85.8082 0.871257 85.219 0.885757C84.6106 0.870424 84.0033 0.947369 83.4179 1.11397C83.1865 1.18242 82.9714 1.29669 82.785 1.44999C82.5986 1.6033 82.4448 1.79251 82.333 2.00637C82.0487 2.67091 81.9261 3.39339 81.975 4.11455V4.11864Z" fill="white"/>
<path id="Rounded Rectangle 1019" d="M29.4959 10.3369H28.4725C26.7769 10.3369 25.4023 11.7115 25.4023 13.4071V35.9216C25.4023 37.6172 26.7769 38.9918 28.4725 38.9918H29.4959C31.1915 38.9918 32.5661 37.6172 32.5661 35.9216V13.4071C32.5661 11.7115 31.1915 10.3369 29.4959 10.3369Z" fill="white"/>
<path id="Rounded Rectangle 1019 copy" d="M98.0643 10.3369H97.0409C95.3453 10.3369 93.9707 11.7115 93.9707 13.4071V35.9216C93.9707 37.6172 95.3453 38.9918 97.0409 38.9918H98.0643C99.7599 38.9918 101.134 37.6172 101.134 35.9216V13.4071C101.134 11.7115 99.7599 10.3369 98.0643 10.3369Z" fill="white"/>
<path id="Vector" d="M29.076 7.87563C31.0542 7.87563 32.6579 6.27198 32.6579 4.29377C32.6579 2.31557 31.0542 0.711914 29.076 0.711914C27.0978 0.711914 25.4941 2.31557 25.4941 4.29377C25.4941 6.27198 27.0978 7.87563 29.076 7.87563Z" fill="white"/>
<path id="Ellipse 617 copy" d="M97.7613 8.01864C99.748 8.01864 101.358 6.40811 101.358 4.42143C101.358 2.43474 99.748 0.824219 97.7613 0.824219C95.7746 0.824219 94.1641 2.43474 94.1641 4.42143C94.1641 6.40811 95.7746 8.01864 97.7613 8.01864Z" fill="white"/>
</g>
<defs>
<clipPath id="clip0_785_392">
<rect width="100.712" height="38.6012" fill="white" transform="translate(0.646484 0.391602)"/>
</clipPath>
</defs>
</svg>
