<svg width="134" height="45" viewBox="0 0 134 45" fill="none" xmlns="http://www.w3.org/2000/svg">
<path fill-rule="evenodd" clip-rule="evenodd" d="M18.091 16.6312V32.5592L13.4638 31.6085C7.63186 30.4105 4.36018 30.353 2.26162 31.4113C1.05956 32.0174 0.737176 32.3691 0.645978 33.1734C0.537281 34.1287 0.562184 34.1506 1.15076 33.6193C3.00231 31.9474 7.41783 32.0053 15.2305 33.8037C21.8388 35.3248 24.8548 35.7653 26.8476 35.5011C28.8722 35.2325 30.5423 34.2607 30.5423 33.3514C30.5423 32.6373 30.0537 32.4391 29.701 33.0098C28.9852 34.1681 28.8597 32.4273 28.8597 21.3342V9.32163L27.9555 8.37802C27.4581 7.85876 26.9281 7.43407 26.7777 7.43407C26.6272 7.43407 26.5041 8.26697 26.5041 9.28495C26.5041 10.3029 26.423 11.1358 26.324 11.1358C26.2247 11.1358 25.7704 10.8912 25.3145 10.5923C24.567 10.1027 24.4849 9.8217 24.4849 7.75646C24.4849 5.65656 24.4072 5.40248 23.5595 4.73381L22.634 4.00389L22.5338 6.06476L22.4331 8.12596L21.4401 7.53907C20.4884 6.97707 20.4466 6.85222 20.4466 4.5642C20.4466 2.30849 20.3915 2.13552 19.4505 1.43993C18.903 1.03509 18.373 0.703613 18.2727 0.703613C18.1728 0.703613 18.091 7.87122 18.091 16.6312ZM14.3892 5.23456V7.83252L15.4829 7.1938C16.3687 6.67656 16.5766 6.34273 16.5766 5.43916C16.5766 4.57766 16.3273 4.1311 15.4829 3.47993L14.3892 2.6366V5.23456ZM10.351 7.56094V10.4315L11.3585 9.85805C12.2483 9.35192 12.364 9.10827 12.3492 7.7706C12.3354 6.50594 12.1692 6.12702 11.342 5.47349L10.351 4.69074V7.56094ZM72.9442 22.4093C72.9442 30.7662 72.9617 30.9907 73.6173 30.9907C74.1224 30.9907 74.2903 30.7662 74.2903 30.0908V29.1906L75.0842 29.9364C77.2921 32.0107 81.4246 31.4218 83.0339 28.8033C83.6618 27.7816 83.856 26.6808 83.7638 24.6677C83.6944 23.1595 81.6319 20.9593 79.9277 20.5766C78.3232 20.2159 76.0375 20.7173 75.0475 21.6471L74.2903 22.3585V18.0931C74.2903 14.0525 74.255 13.828 73.6173 13.828C72.9617 13.828 72.9442 14.0525 72.9442 22.4093ZM123.871 14.633C123.029 15.3572 122.922 15.6947 122.805 17.9982L122.676 20.5585H121.703C120.955 20.5585 120.73 20.7136 120.73 21.2315C120.73 21.7551 120.955 21.9046 121.74 21.9046H122.75V26.4476C122.75 30.7662 122.783 30.9907 123.423 30.9907C124.062 30.9907 124.096 30.7662 124.096 26.4476V21.9046H125.274C126.227 21.9046 126.451 21.7763 126.451 21.2315C126.451 20.6867 126.227 20.5585 125.274 20.5585H124.096V18.3711C124.096 15.8562 124.867 14.6491 126.299 14.9231C126.788 15.0166 127.161 14.8897 127.276 14.5919C127.564 13.8425 127.542 13.828 126.134 13.828C125.219 13.828 124.515 14.0784 123.871 14.633ZM91.2847 15.3265C89.4584 15.9962 87.2303 18.4091 86.7295 20.2596C86.1029 22.5763 86.4916 25.6952 87.6388 27.5504C89.6889 30.8668 94.165 32.2705 97.576 30.6669C99.6382 29.6978 100.439 28.8211 99.8798 28.1471C99.5198 27.7133 99.2899 27.7863 98.1606 28.6939C95.6878 30.6811 91.6411 30.2561 89.4678 27.7809C87.1926 25.1897 87.2081 20.9576 89.5022 18.3448C90.7631 16.9085 91.9066 16.2823 93.4721 16.1702C95.6144 16.0168 96.3941 16.1749 97.6312 17.0145C98.7576 17.7791 99.8661 17.8582 99.8661 17.1744C99.8661 17.0186 99.3121 16.4687 98.6354 15.9521C97.5969 15.1603 97.0319 14.9994 95.0178 14.9231C93.5394 14.8672 92.1186 15.0206 91.2847 15.3265ZM37.9458 15.4292C37.9458 15.5695 38.9302 19.0774 40.1332 23.2247C41.3363 27.372 42.3206 30.816 42.3206 30.8779C42.3206 30.9399 42.7507 30.9907 43.2764 30.9907H44.2324L46.2088 23.887C47.2958 19.98 48.2603 16.989 48.3518 17.2407C48.4433 17.4921 49.3597 20.651 50.3878 24.2602C52.1902 30.5855 52.2905 30.8261 53.161 30.9274C54.172 31.0445 53.8772 31.8118 57.2421 20.3061L58.7433 15.1741H57.9582C57.4995 15.1741 57.1024 15.4191 57.0031 15.763C56.9099 16.0871 56.041 19.2023 55.0725 22.6863C54.104 26.17 53.2088 28.8201 53.0833 28.5755C52.9575 28.3305 52.0367 25.2092 51.0369 21.639L49.2194 15.1482L48.2219 15.2451C47.2268 15.342 47.2201 15.3578 45.3167 22.0055C44.2674 25.6699 43.342 28.7356 43.2599 28.8174C43.1778 28.8995 42.3839 26.3554 41.4958 23.1642C40.6077 19.9726 39.7412 16.8692 39.5706 16.2678C39.3565 15.5133 39.0567 15.1741 38.6031 15.1741C38.2416 15.1741 37.9458 15.2889 37.9458 15.4292ZM129.48 19.0441C129.48 20.5504 129.474 20.5585 128.302 20.5585C127.349 20.5585 127.124 20.6867 127.124 21.2315C127.124 21.7763 127.349 21.9046 128.302 21.9046H129.48V25.6285C129.48 27.6766 129.641 29.6523 129.837 30.0195C130.576 31.4002 133.855 31.6768 133.855 30.3584C133.855 29.8916 133.62 29.8071 132.638 29.9219C131.843 30.0144 131.321 29.9037 131.129 29.6018C130.968 29.3478 130.834 27.5205 130.831 25.5414L130.826 21.9433L132.253 21.8396C133.295 21.7642 133.711 21.5771 133.793 21.1474C133.886 20.6561 133.649 20.5585 132.365 20.5585H130.826V19.0441C130.826 17.7542 130.727 17.5298 130.153 17.5298C129.58 17.5298 129.48 17.7542 129.48 19.0441ZM63.742 20.7089C61.1592 21.6377 59.9282 23.6871 60.2482 26.526C60.5629 29.3155 62.6029 31.1717 65.3139 31.1357C67.967 31.1004 70.3247 29.5827 69.3074 28.5654C69.0507 28.3086 68.6421 28.4607 67.891 29.0927C66.1007 30.5993 63.3725 30.1837 62.1768 28.2228C61.0327 26.346 61.1003 26.3083 65.7931 26.2053L70.0838 26.1111L70.0074 24.8303C69.8162 21.6158 66.7778 19.6172 63.742 20.7089ZM106.387 20.5891C105.808 20.756 105.146 21.1201 104.915 21.3984C104.332 22.1011 103.904 22.0304 103.904 21.2315C103.904 20.8576 103.68 20.5585 103.4 20.5585C102.972 20.5585 102.895 21.3624 102.895 25.7746C102.895 30.7662 102.924 30.9907 103.568 30.9907C104.196 30.9907 104.241 30.7662 104.241 27.6086C104.241 23.4475 104.639 22.5009 106.674 21.8228C108.85 21.0972 108.584 19.9554 106.387 20.5891ZM112.878 20.5894C112.169 20.758 111.295 21.1016 110.936 21.353C110.389 21.7356 110.36 21.8729 110.75 22.1973C111.107 22.4931 111.447 22.4649 112.188 22.0785C114.411 20.9192 117.029 21.8258 117.029 23.7554C117.029 24.4628 116.871 24.5967 116.036 24.5967C114.122 24.5967 111.534 25.3499 110.748 26.1353C109.195 27.6887 109.938 30.2611 112.151 30.9914C113.635 31.481 115.078 31.1724 116.364 30.0908L117.365 29.2482V30.1194C117.365 30.6696 117.551 30.9907 117.87 30.9907C118.572 30.9907 118.595 24.0916 117.899 22.4255C117.175 20.6948 115.308 20.012 112.878 20.5894ZM67.7332 22.6247C68.1552 23.0615 68.6017 23.7595 68.7259 24.1761C68.95 24.9296 68.9325 24.9333 65.2042 24.9333C61.4782 24.9333 61.4584 24.9289 61.6744 24.1761C61.7939 23.7595 62.3559 22.9851 62.9229 22.4551C63.8244 21.6131 64.1445 21.5128 65.4603 21.6612C66.4416 21.7716 67.2331 22.1071 67.7332 22.6247ZM81.2106 22.5978C83.8102 25.0399 82.1798 29.9811 78.7741 29.9811C74.9899 29.9811 72.8695 26.067 75.0862 23.1736C76.4222 21.4301 79.6447 21.1269 81.2106 22.5978ZM117.029 26.9066C117.029 28.7673 115.758 29.9811 113.81 29.9811C110.256 29.9811 110.501 26.5082 114.096 25.922C116.978 25.4518 117.029 25.4687 117.029 26.9066ZM2.27441 35.7612C1.26585 36.2822 0.72405 36.7964 0.652371 37.3005C0.523483 38.2101 0.527185 38.2108 1.97019 37.4687C4.07279 36.3878 9.13443 36.6961 16.2919 38.341C23.3902 39.9725 27.0021 40.2101 29.104 39.183C29.9201 38.7842 30.4124 38.2919 30.4818 37.8053C30.61 36.902 30.4902 36.8839 29.1151 37.5946C27.4958 38.4322 22.7158 38.0375 16.2401 36.5319C12.5104 35.6646 9.77012 35.2339 7.32226 35.1296C4.1162 34.9933 3.64843 35.0518 2.27441 35.7612ZM2.02202 40.1078C0.918224 40.661 0.591797 41.0144 0.591797 41.6564C0.591797 42.1141 0.705542 42.4301 0.844189 42.3588C3.24023 41.1254 3.85708 41.0096 7.15399 41.1772C9.37168 41.29 12.2977 41.7759 15.7353 42.6024C24.7 44.7582 30.188 44.5482 30.4781 42.0381L30.582 41.1389L29.3002 41.8133C27.4568 42.7831 23.0914 42.4739 16.5766 40.9114C9.90877 39.3122 4.23432 38.9989 2.02202 40.1078Z" fill="#5E9EFF"/>
</svg>
