<svg width="134" height="44" viewBox="0 0 134 44" fill="none" xmlns="http://www.w3.org/2000/svg">
<path fill-rule="evenodd" clip-rule="evenodd" d="M18.091 16.3451V32.2731L13.4638 31.3224C7.63186 30.1244 4.36018 30.0668 2.26162 31.1252C1.05956 31.7313 0.737176 32.0829 0.645978 32.8872C0.537281 33.8426 0.562184 33.8645 1.15076 33.3331C3.00231 31.6613 7.41783 31.7192 15.2305 33.5175C21.8388 35.0386 24.8548 35.4791 26.8476 35.215C28.8722 34.9464 30.5423 33.9745 30.5423 33.0653C30.5423 32.3512 30.0537 32.1529 29.701 32.7237C28.9852 33.882 28.8597 32.1412 28.8597 21.048V9.03549L27.9555 8.09188C27.4581 7.57263 26.9281 7.14794 26.7777 7.14794C26.6272 7.14794 26.5041 7.98083 26.5041 8.99882C26.5041 10.0168 26.423 10.8497 26.324 10.8497C26.2247 10.8497 25.7704 10.605 25.3145 10.3062C24.567 9.81656 24.4849 9.53557 24.4849 7.47033C24.4849 5.37043 24.4072 5.11635 23.5595 4.44768L22.634 3.71776L22.5338 5.77863L22.4331 7.83983L21.4401 7.25293C20.4884 6.69094 20.4466 6.56609 20.4466 4.27807C20.4466 2.02236 20.3915 1.84939 19.4505 1.15379C18.903 0.748957 18.373 0.41748 18.2727 0.41748C18.1728 0.41748 18.091 7.58508 18.091 16.3451ZM14.3892 4.94842V7.54638L15.4829 6.90766C16.3687 6.39043 16.5766 6.05659 16.5766 5.15303C16.5766 4.29153 16.3273 3.84497 15.4829 3.19379L14.3892 2.35047V4.94842ZM10.351 7.27481V10.1453L11.3585 9.57191C12.2483 9.06578 12.364 8.82214 12.3492 7.48446C12.3354 6.21981 12.1692 5.84089 11.342 5.18736L10.351 4.4046V7.27481ZM72.9442 22.1232C72.9442 30.4801 72.9617 30.7045 73.6173 30.7045C74.1224 30.7045 74.2903 30.4801 74.2903 29.8047V28.9045L75.0842 29.6502C77.2921 31.7245 81.4246 31.1356 83.0339 28.5171C83.6618 27.4955 83.856 26.3947 83.7638 24.3816C83.6944 22.8733 81.6319 20.6731 79.9277 20.2905C78.3232 19.9298 76.0375 20.4312 75.0475 21.361L74.2903 22.0724V17.807C74.2903 13.7663 74.255 13.5419 73.6173 13.5419C72.9617 13.5419 72.9442 13.7663 72.9442 22.1232ZM123.871 14.3468C123.029 15.071 122.922 15.4086 122.805 17.7121L122.676 20.2723H121.703C120.955 20.2723 120.73 20.4275 120.73 20.9454C120.73 21.469 120.955 21.6184 121.74 21.6184H122.75V26.1615C122.75 30.4801 122.783 30.7045 123.423 30.7045C124.062 30.7045 124.096 30.4801 124.096 26.1615V21.6184H125.274C126.227 21.6184 126.451 21.4902 126.451 20.9454C126.451 20.4005 126.227 20.2723 125.274 20.2723H124.096V18.0849C124.096 15.5701 124.867 14.363 126.299 14.6369C126.788 14.7305 127.161 14.6036 127.276 14.3058C127.564 13.5563 127.542 13.5419 126.134 13.5419C125.219 13.5419 124.515 13.7922 123.871 14.3468ZM91.2847 15.0404C89.4584 15.7101 87.2303 18.123 86.7295 19.9735C86.1029 22.2901 86.4916 25.409 87.6388 27.2643C89.6889 30.5807 94.165 31.9843 97.576 30.3808C99.6382 29.4116 100.439 28.535 99.8798 27.8609C99.5198 27.4271 99.2899 27.5002 98.1606 28.4078C95.6878 30.3949 91.6411 29.9699 89.4678 27.4948C87.1926 24.9036 87.2081 20.6714 89.5022 18.0587C90.7631 16.6224 91.9066 15.9961 93.4721 15.8841C95.6144 15.7306 96.3941 15.8888 97.6312 16.7284C98.7576 17.493 99.8661 17.5721 99.8661 16.8883C99.8661 16.7324 99.3121 16.1826 98.6354 15.666C97.5969 14.8742 97.0319 14.7133 95.0178 14.6369C93.5394 14.5811 92.1186 14.7345 91.2847 15.0404ZM37.9458 15.143C37.9458 15.2834 38.9302 18.7913 40.1332 22.9386C41.3363 27.0859 42.3206 30.5299 42.3206 30.5918C42.3206 30.6537 42.7507 30.7045 43.2764 30.7045H44.2324L46.2088 23.6009C47.2958 19.6939 48.2603 16.7028 48.3518 16.9546C48.4433 17.2059 49.3597 20.3649 50.3878 23.9741C52.1902 30.2994 52.2905 30.54 53.161 30.6413C54.172 30.7584 53.8772 31.5257 57.2421 20.0199L58.7433 14.888H57.9582C57.4995 14.888 57.1024 15.133 57.0031 15.4769C56.9099 15.801 56.041 18.9161 55.0725 22.4002C54.104 25.8839 53.2088 28.534 53.0833 28.2893C52.9575 28.0443 52.0367 24.9231 51.0369 21.3529L49.2194 14.8621L48.2219 14.959C47.2268 15.0559 47.2201 15.0717 45.3167 21.7194C44.2674 25.3838 43.342 28.4495 43.2599 28.5313C43.1778 28.6134 42.3839 26.0693 41.4958 22.878C40.6077 19.6864 39.7412 16.583 39.5706 15.9817C39.3565 15.2272 39.0567 14.888 38.6031 14.888C38.2416 14.888 37.9458 15.0027 37.9458 15.143ZM129.48 18.758C129.48 20.2643 129.474 20.2723 128.302 20.2723C127.349 20.2723 127.124 20.4005 127.124 20.9454C127.124 21.4902 127.349 21.6184 128.302 21.6184H129.48V25.3424C129.48 27.3905 129.641 29.3662 129.837 29.7333C130.576 31.1141 133.855 31.3907 133.855 30.0722C133.855 29.6055 133.62 29.521 132.638 29.6357C131.843 29.7283 131.321 29.6176 131.129 29.3157C130.968 29.0616 130.834 27.2343 130.831 25.2552L130.826 21.6571L132.253 21.5535C133.295 21.4781 133.711 21.291 133.793 20.8612C133.886 20.3699 133.649 20.2723 132.365 20.2723H130.826V18.758C130.826 17.4681 130.727 17.2436 130.153 17.2436C129.58 17.2436 129.48 17.4681 129.48 18.758ZM63.742 20.4228C61.1592 21.3516 59.9282 23.401 60.2482 26.2399C60.5629 29.0293 62.6029 30.8856 65.3139 30.8496C67.967 30.8143 70.3247 29.2965 69.3074 28.2792C69.0507 28.0225 68.6421 28.1746 67.891 28.8066C66.1007 30.3132 63.3725 29.8976 62.1768 27.9366C61.0327 26.0599 61.1003 26.0222 65.7931 25.9192L70.0838 25.825L70.0074 24.5442C69.8162 21.3297 66.7778 19.3311 63.742 20.4228ZM106.387 20.303C105.808 20.4699 105.146 20.834 104.915 21.1123C104.332 21.815 103.904 21.7443 103.904 20.9454C103.904 20.5715 103.68 20.2723 103.4 20.2723C102.972 20.2723 102.895 21.0763 102.895 25.4884C102.895 30.4801 102.924 30.7045 103.568 30.7045C104.196 30.7045 104.241 30.4801 104.241 27.3225C104.241 23.1614 104.639 22.2147 106.674 21.5367C108.85 20.8111 108.584 19.6693 106.387 20.303ZM112.878 20.3033C112.169 20.4719 111.295 20.8155 110.936 21.0669C110.389 21.4495 110.36 21.5868 110.75 21.9112C111.107 22.207 111.447 22.1787 112.188 21.7924C114.411 20.6331 117.029 21.5397 117.029 23.4693C117.029 24.1767 116.871 24.3106 116.036 24.3106C114.122 24.3106 111.534 25.0637 110.748 25.8492C109.195 27.4026 109.938 29.975 112.151 30.7052C113.635 31.1949 115.078 30.8863 116.364 29.8047L117.365 28.962V29.8333C117.365 30.3835 117.551 30.7045 117.87 30.7045C118.572 30.7045 118.595 23.8055 117.899 22.1394C117.175 20.4086 115.308 19.7258 112.878 20.3033ZM67.7332 22.3386C68.1552 22.7754 68.6017 23.4733 68.7259 23.89C68.95 24.6434 68.9325 24.6471 65.2042 24.6471C61.4782 24.6471 61.4584 24.6428 61.6744 23.89C61.7939 23.4733 62.3559 22.699 62.9229 22.169C63.8244 21.327 64.1445 21.2267 65.4603 21.3751C66.4416 21.4855 67.2331 21.821 67.7332 22.3386ZM81.2106 22.3117C83.8102 24.7538 82.1798 29.695 78.7741 29.695C74.9899 29.695 72.8695 25.7809 75.0862 22.8875C76.4222 21.1439 79.6447 20.8407 81.2106 22.3117ZM117.029 26.6205C117.029 28.4811 115.758 29.695 113.81 29.695C110.256 29.695 110.501 26.2221 114.096 25.6358C116.978 25.1657 117.029 25.1825 117.029 26.6205ZM2.27441 35.4751C1.26585 35.996 0.72405 36.5102 0.652371 37.0144C0.523483 37.924 0.527185 37.9246 1.97019 37.1826C4.07279 36.1017 9.13443 36.41 16.2919 38.0549C23.3902 39.6863 27.0021 39.9239 29.104 38.8969C29.9201 38.4981 30.4124 38.0057 30.4818 37.5191C30.61 36.6159 30.4902 36.5977 29.1151 37.3085C27.4958 38.1461 22.7158 37.7513 16.2401 36.2457C12.5104 35.3785 9.77012 34.9478 7.32226 34.8434C4.1162 34.7071 3.64843 34.7657 2.27441 35.4751ZM2.02202 39.8216C0.918224 40.3749 0.591797 40.7282 0.591797 41.3703C0.591797 41.828 0.705542 42.144 0.844189 42.0726C3.24023 40.8393 3.85708 40.7235 7.15399 40.8911C9.37168 41.0038 12.2977 41.4898 15.7353 42.3163C24.7 44.472 30.188 44.262 30.4781 41.7519L30.582 40.8527L29.3002 41.5271C27.4568 42.497 23.0914 42.1877 16.5766 40.6252C9.90877 39.0261 4.23432 38.7128 2.02202 39.8216Z" fill="white"/>
</svg>
