<svg width="33" height="34" viewBox="0 0 33 34" fill="none" xmlns="http://www.w3.org/2000/svg">
<g id="lnk svg" clip-path="url(#clip0_730_2363)">
<path id="Vector" d="M28.2849 1.33789H4.51348C2.74617 1.33789 1.31348 2.81784 1.31348 4.64345V30.1434C1.31348 31.9691 2.74617 33.449 4.51348 33.449H28.2849C30.0522 33.449 31.4849 31.9691 31.4849 30.1434V4.64345C31.4849 2.81784 30.0522 1.33789 28.2849 1.33789Z" stroke="white"/>
<path id="Vector_2" d="M11.3712 7.00439H6.7998V11.7266H11.3712V7.00439Z" stroke="white"/>
<path id="Vector_3" d="M11.3712 14.5601H6.7998V27.7823H11.3712V14.5601Z" stroke="white"/>
<path id="Vector_4" d="M14.5713 27.31V15.5044V15.0322H18.2284V16.4489C18.6856 15.9767 20.4945 15.1226 22.3427 15.5044C26.9141 16.4489 25.9999 23.5322 25.9999 27.31H22.7999C22.7999 24.9489 23.257 18.81 20.5141 18.81C17.7713 18.81 18.2284 24.0044 18.2284 27.31H14.5713Z" stroke="white"/>
</g>
<defs>
<clipPath id="clip0_730_2363">
<rect width="32" height="34" fill="white" transform="translate(0.106445 0.00976562)"/>
</clipPath>
</defs>
</svg>
