<svg width="246" height="46" viewBox="0 0 246 46" fill="none" xmlns="http://www.w3.org/2000/svg">
<path fill-rule="evenodd" clip-rule="evenodd" d="M9.2498 2.58779L49.7973 2.44523C51.2479 2.4401 52.4275 3.61211 52.4328 5.06297L52.5326 33.4812L6.73262 33.6419L6.63273 5.22405C6.62766 3.77319 7.79934 2.59291 9.2498 2.58779ZM4.88191 5.23018C4.87342 2.81209 6.82621 0.844929 9.24367 0.836435L49.7912 0.693875C52.2087 0.685381 54.1749 2.63875 54.1836 5.05684L54.2834 33.4751L54.2896 35.2264L52.5387 35.2325L6.73879 35.3932L4.98793 35.3998L4.98176 33.6484L4.88191 5.23018ZM22.9799 6.11291C22.8496 4.9504 23.3361 4.30993 24.7251 3.81487C26.1164 3.31959 26.9533 3.31735 29.6749 3.80265C31.892 4.19785 32.5298 4.46094 35.7038 6.28813C40.5558 9.08118 41.7 12.2363 40.0765 18.3443C39.5416 20.357 39.4746 20.9166 39.7692 20.9166C39.9946 20.9166 40.2183 20.4625 40.3269 19.7856C40.5304 18.5106 41.081 17.8048 41.6895 18.0378C42.2471 18.2523 42.1937 19.1508 41.5363 20.5996C41.2338 21.2664 40.9865 21.9083 40.9865 22.0265C40.9865 22.1447 41.5805 22.3903 42.3071 22.5725C44.0343 23.005 44.8787 23.8041 44.8787 25.0064C44.8787 26.6549 43.4425 26.499 43.0718 24.8102C42.9755 24.3724 42.729 23.875 42.5242 23.7051C41.9823 23.2555 40.7488 23.6552 40.2288 24.4499C39.8152 25.0813 39.8174 25.1951 40.2603 25.9451C40.7226 26.728 40.7204 26.7569 40.2021 26.7569C39.4295 26.7569 39.0268 26.143 38.7992 24.6176C38.6141 23.3772 38.5747 23.3251 38.26 23.8952C37.9404 24.474 38.0731 25.7516 38.6522 27.661C38.8526 28.3221 38.1829 28.2889 37.2992 27.594C36.6697 27.0984 36.6212 26.9298 36.8378 25.9946C37.1622 24.5979 37.156 24.5322 36.6999 24.5322C36.4833 24.5322 36.1289 25.0638 35.9123 25.7139C35.376 27.3243 34.6956 27.4141 34.1207 25.9499L33.6767 24.819L32.5901 25.8006C30.4826 27.7052 29.6488 27.7258 27.4732 25.9272L26.1248 24.8124L25.7011 25.6899C25.2634 26.5971 24.456 27.2792 24.1652 26.9885C24.0737 26.897 23.9709 26.4009 23.9367 25.8856C23.8029 23.8798 22.9143 23.6434 22.9143 25.6137C22.9143 27.1698 22.1939 28.3576 21.4285 28.0634C20.8138 27.8278 20.8477 26.971 21.5241 25.6443C21.83 25.0449 22.0802 24.3689 22.0802 24.1425C22.0802 23.417 21.4641 23.3181 20.9762 23.9652C20.2491 24.9293 19.4714 24.6137 19.2807 23.2769C19.1937 22.667 18.8334 21.5453 18.4805 20.7843C17.9034 19.5404 17.8783 19.3294 18.2323 18.6985C18.8325 17.6284 19.338 17.8412 19.7139 19.322C19.8988 20.0514 20.1318 20.7292 20.2313 20.8286C20.7571 21.3548 20.6959 20.3316 20.0331 17.5159C19.0703 13.4256 19.0714 13.4076 20.273 13.4076H21.2461V15.4379C21.2461 16.5544 21.3815 17.6034 21.5467 17.7689C21.7121 17.9344 21.996 18.7414 22.1775 19.5628L22.5078 21.0558L24.4826 21.3338H27.3552L27.4732 22.3027C28.0009 24.1001 28.1969 24.6093 28.1969 23.1762C28.1969 22.7366 28.275 21.9858 28.3707 21.5076C28.5417 20.6525 28.5709 20.6385 30.1779 20.6385H31.8114L31.8441 21.6815C31.8622 22.255 31.9379 23.0821 32.0343 23.5265C32.168 24.1425 32.4328 23.8238 32.4328 23.8238V22.3027L32.5901 21.1841L35.2518 21.6118C36.3213 21.6026 37.3955 21.4914 37.5671 21.385C37.7391 21.2786 38.1575 20.9087 38.26 20.3023C38.3624 19.6959 38.499 18.9677 38.7992 18.5859C39.2435 18.0203 39.3289 17.2475 39.2615 15.7111C39.1533 13.2303 38.6456 13.2833 38.5427 15.7868L38.4618 17.7488C38.4618 17.7488 35.0366 17.7488 34.027 17.8898C32.5198 18.0999 32.3265 18.3443 32.0343 18.9353C31.6235 19.5431 31.4089 19.6459 31.1314 19.6459C30.7841 19.6459 30.7294 19.6495 30.6936 19.6516C30.6497 19.6547 30.6345 19.6556 30.1432 19.6459C29.224 19.628 29.161 19.6459 29.161 19.6459H28.7869C28.3537 19.6459 28.1348 19.688 28.0026 19.7134C27.8181 19.7488 27.8027 19.7519 27.6091 19.5628C27.553 19.5076 27.5248 19.4196 27.4901 19.311C27.3193 18.7768 26.9904 17.7488 22.4044 17.7488C22.3748 17.7103 22.3405 17.6752 22.3041 17.6376C22.0617 17.3889 21.7215 17.0399 21.9779 14.9064L22.1486 13.4847L24.3504 13.3153C25.5698 13.2211 27.0979 12.9037 27.7749 12.6042C28.8403 12.1329 29.0199 11.9268 29.1742 10.9973C29.4431 9.37734 29.8654 8.36672 30.7526 7.21976L31.5594 6.17687H30.737C29.5084 6.17687 28.475 7.52708 28.475 9.13206C28.475 10.8914 27.8563 11.9588 26.7367 12.1318C26.2399 12.2085 23.4565 12.3888 20.5511 12.5328C15.1297 12.8012 13.1454 13.2145 12.7867 14.1498C12.5426 14.7859 12.7831 15.0079 14.8369 16.0425C16.7445 17.0036 17.0756 17.374 17.0756 18.5465C17.0756 19.1626 16.5713 19.6849 14.2683 21.4555L13.387 22.1329L14.1346 22.7765L14.8825 23.4197H14.1719C13.4443 23.4197 12.3491 22.5598 12.3491 21.9884C12.3491 21.8132 12.9227 21.0562 13.6236 20.3066C15.1072 18.7204 15.063 18.5737 12.6994 17.2396C11.0615 16.3149 10.6809 15.8026 10.6809 14.5246C10.6809 12.1329 12.6902 10.8658 17.4329 10.267C19.9866 9.94469 20.4963 9.79591 20.8691 9.26332C21.1099 8.91931 21.7063 8.27438 22.1945 7.83024C22.9149 7.17445 23.0628 6.85101 22.9799 6.11291ZM21.5931 29.8108C21.4352 29.0262 22.2487 28.3659 24.1846 27.7061C26.8037 26.8138 27.6303 26.8423 28.6048 27.8598L29.395 28.6847L28.7266 28.943C28.3587 29.0849 27.4988 29.4264 26.8154 29.7022C25.1895 30.3581 21.7177 30.4303 21.5931 29.8108ZM31.1163 28.9215C30.9369 28.7569 31.1616 28.376 31.7499 27.8475C32.7358 26.9618 32.8732 26.9596 35.5648 27.7928C37.9002 28.5152 38.4841 28.9075 38.4845 29.7539V30.5113L36.1907 30.3572C34.1037 30.2171 31.8266 29.5726 31.1163 28.9215ZM25.8198 31.7403C25.562 31.3231 26.2062 30.6834 27.1893 30.3804C28.3643 30.0183 32.6015 30.1996 33.549 30.6523C35.4052 31.5398 33.5927 32.5981 30.2216 32.5954C27.9906 32.5941 26.1231 32.2312 25.8198 31.7403ZM4.37302 38.5794L1.03307 44.0221C0.674321 44.6066 1.09645 45.358 1.78227 45.3558L58.1962 45.1574C58.9079 45.1548 59.3194 44.3488 58.9035 43.7704L55.0087 38.353C54.8437 38.1236 54.578 37.9879 54.2953 37.9887L5.11605 38.1617C4.8128 38.1625 4.5317 38.3206 4.37302 38.5794ZM26.0282 41.1271L25.2332 43.0742L34.2248 43.0427L33.4735 41.1009L26.0282 41.1271ZM174.919 31.3892L166.299 21.6836V31.3892H162.65V1.71071H166.299V19.1569L174.759 9.41109H179.851L169.506 20.3601L179.891 31.3892H174.919ZM71.308 18.6354L82.8151 31.3892H87.5862L74.7961 17.4322L87.4663 3.43527H82.8554L71.308 16.3898V3.43527H67.6592V31.3892H71.308V18.6354ZM95.631 30.3467C97.3149 31.2824 99.1857 31.7504 101.244 31.7504C103.329 31.7504 105.227 31.2824 106.938 30.3467C108.648 29.4106 109.998 28.087 110.987 26.376C112.003 24.6382 112.511 22.6329 112.511 20.3601C112.511 18.0872 112.016 16.0955 111.027 14.3845C110.065 12.6729 108.742 11.3629 107.058 10.4538C105.374 9.51806 103.489 9.05014 101.404 9.05014C99.3196 9.05014 97.4353 9.51806 95.7509 10.4538C94.067 11.3629 92.7307 12.6865 91.7415 14.4243C90.7794 16.1354 90.2983 18.114 90.2983 20.3601C90.2983 22.6329 90.7658 24.6382 91.7016 26.376C92.6637 28.087 93.9734 29.4106 95.631 30.3467ZM104.933 27.6194C103.783 28.2341 102.554 28.5419 101.244 28.5419C99.9342 28.5419 98.7313 28.2477 97.6357 27.6593C96.5397 27.0445 95.6577 26.122 94.9893 24.8921C94.3476 23.6622 94.0272 22.1517 94.0272 20.3601C94.0272 18.5956 94.3612 17.0982 95.0296 15.8683C95.6975 14.6384 96.5795 13.729 97.6756 13.141C98.7983 12.5258 100.028 12.2186 101.364 12.2186C102.674 12.2186 103.89 12.5258 105.013 13.141C106.136 13.729 107.044 14.6384 107.74 15.8683C108.435 17.0982 108.782 18.5956 108.782 20.3601C108.782 22.125 108.421 23.622 107.699 24.8518C107.005 26.0817 106.082 27.0043 104.933 27.6194ZM120.035 28.3813H130.82V31.3892H115.865V28.3813L126.53 12.3792H115.945V9.41109H130.74V12.3792L120.035 28.3813ZM135.555 14.4243C134.646 16.1087 134.191 18.0741 134.191 20.3198C134.191 22.5392 134.646 24.5178 135.555 26.2555C136.463 27.9938 137.706 29.3441 139.284 30.3064C140.861 31.2688 142.625 31.7504 144.576 31.7504C146.474 31.7504 148.131 31.3358 149.548 30.507C150.991 29.6514 152.074 28.5818 152.795 27.2985V31.3892H156.484V9.41109H152.795V13.4216C152.1 12.1651 151.045 11.1223 149.628 10.2934C148.211 9.46455 146.54 9.05014 144.616 9.05014C142.665 9.05014 140.887 9.51806 139.284 10.4538C137.706 11.3897 136.463 12.7132 135.555 14.4243ZM151.793 16.0285C152.461 17.2584 152.795 18.7024 152.795 20.3601C152.795 22.0177 152.461 23.4748 151.793 24.7319C151.125 25.9618 150.216 26.911 149.067 27.5791C147.944 28.221 146.701 28.5419 145.338 28.5419C143.975 28.5419 142.731 28.221 141.609 27.5791C140.486 26.911 139.591 25.9618 138.922 24.7319C138.255 23.4748 137.92 22.0046 137.92 20.3198C137.92 18.6621 138.255 17.2186 138.922 15.9887C139.591 14.7588 140.486 13.8227 141.609 13.1813C142.731 12.5394 143.975 12.2186 145.338 12.2186C146.701 12.2186 147.944 12.5525 149.067 13.2211C150.216 13.863 151.125 14.7986 151.793 16.0285ZM200.486 6.40315V3.43527H181.561V6.40315H189.219V31.3892H192.867V6.40315H200.486ZM225.025 19.5579C225.025 20.2532 224.984 20.9884 224.904 21.7638H207.343C207.476 23.9298 208.211 25.6272 209.548 26.8571C210.911 28.0603 212.555 28.6619 214.48 28.6619C216.057 28.6619 217.366 28.3011 218.409 27.5791C219.478 26.8304 220.227 25.8414 220.654 24.6115H224.584C223.996 26.7236 222.82 28.4482 221.055 29.785C219.291 31.0954 217.099 31.7504 214.48 31.7504C212.394 31.7504 210.524 31.2824 208.866 30.3467C207.236 29.4106 205.953 28.087 205.017 26.376C204.082 24.6382 203.614 22.6329 203.614 20.3601C203.614 18.0872 204.068 16.0955 204.977 14.3845C205.886 12.6729 207.155 11.3629 208.786 10.4538C210.443 9.51806 212.341 9.05014 214.48 9.05014C216.565 9.05014 218.409 9.5047 220.013 10.4137C221.617 11.3228 222.846 12.5797 223.702 14.1839C224.584 15.7615 225.025 17.5526 225.025 19.5579ZM221.256 18.7961C221.256 17.4055 220.948 16.2159 220.333 15.2264C219.719 14.2106 218.877 13.4484 217.808 12.9405C216.765 12.4059 215.602 12.1383 214.319 12.1383C212.475 12.1383 210.898 12.7264 209.588 13.9028C208.305 15.0793 207.57 16.7102 207.383 18.7961H221.256ZM227.275 31.3892H231.084L236.095 23.2078L241.308 31.3892H245.438L238.341 20.2799L245.397 9.41109H241.588L236.617 17.5526L231.404 9.41109H227.275L234.371 20.4805L227.275 31.3892Z" fill="white"/>
</svg>
